# xmcd
#
# Track frame offsets:
#	150
#	16756
#	30265
#	50793
#	69679
#	83893
#	99087
#	121189
#	141393
#	158948
#	181156
#	194240
#
# Disc length: 2821 seconds
#
# Revision: 18
# Processed by: cddbd v1.5.2PL0 Copyright (c) Steve Scherf et al.
# Submitted via: audiograbber 1.83.01
#
DISCID=9e0b030c
DTITLE=Keith Urban - Keith Urban
DYEAR=1999
DGENRE=Country
TTITLE0=It's A Love Thing
TTITLE1=Where The Blacktop Ends
TTITLE2=But For The Grace Of God
TTITLE3=Your Everything
TTITLE4=I Wanna Be Your Man (Forever)
TTITLE5=A Little Luck Of Our Own
TTITLE6=You're The Only One
TTITLE7=If You Wanna Stay
TTITLE8=Don't Shut Me Out
TTITLE9=Out On My Own
TTITLE10=Rollercoaster
TTITLE11=I Thought You Knew
EXTD=
EXTT0=
EXTT1=
EXTT2=
EXTT3=
EXTT4=
EXTT5=
EXTT6=
EXTT7=
EXTT8=
EXTT9=
EXTT10=
EXTT11=
PLAYORDER=
